<svg xmlns="http://www.w3.org/2000/svg" viewBox="0 0 103.9 47.46"><defs><style>.cls-1{fill:#e75f50;}.cls-2{fill:#fff;}.cls-3{fill:#e14355;}.cls-4{fill:#f08648;}.cls-5{fill:#f9af44;}.cls-6{fill:#e86455;}.cls-7{fill:#e04255;}.cls-8{fill:#fcfafb;}.cls-9{fill:none;stroke:#fff;}</style></defs><g id="Layer_2" data-name="Layer 2"><g id="Layer_1-2" data-name="Layer 1"><path class="cls-1" d="M48.63,35l-.36,4a36.05,36.05,0,0,0-.18,3.89c0,.51-.09.57-.55.36a68.54,68.54,0,0,0-11.31-3.94c-1.17-.28-2.34-.54-3.52-.76a.5.5,0,0,1-.33-.12c.17-.08.16-.19,0-.29l-.55-.36c-1.84-1.17-3.58-2.5-5.43-3.67a2,2,0,0,1-.66-.62,18.7,18.7,0,0,1,2.12-.13,67.12,67.12,0,0,1,7.37.22A61.51,61.51,0,0,1,43,34.65c.41.09.48.05.5-.38a17.68,17.68,0,0,1,.15-2.06v-.13a1.29,1.29,0,0,1,.75.33c1,.69,2.05,1.32,3,2.08A2.25,2.25,0,0,0,48.63,35Z"/><path class="cls-2" d="M30.2,28.77a2.32,2.32,0,0,0-2.49-1.08l-1.07.16c-3.28.5-6.5,1.31-9.77,1.9-1.43.26-2.85.58-4.3.72a6.45,6.45,0,0,1-4.49-.93,3.72,3.72,0,0,1-1.23-5.13,3.76,3.76,0,0,1,.83-.95,9.1,9.1,0,0,1,4.14-2c2.56-.61,5.16-1,7.77-1.39,3.37-.46,6.75-.81,10.12-1.25a3.45,3.45,0,0,0,3.07-2.31,2,2,0,0,0-.91-2.59,2,2,0,0,0-.47-.15,9.66,9.66,0,0,0-3.47-.3c-2,.09-4,.27-6,.56-2.5.35-5,.84-7.44,1.35-1.7.35-3.38.8-5.1,1a9.22,9.22,0,0,1-3.23,0A2.31,2.31,0,0,1,4,14a4.24,4.24,0,0,1,1.22-2.7A9.91,9.91,0,0,1,9,9.11,38.44,38.44,0,0,1,14.59,7.6a88.33,88.33,0,0,1,8.85-1.49c2.67-.31,5.31-.5,7.94-.57,1.55,0,3.09-.08,4.63,0A22.56,22.56,0,0,1,41,6a6.58,6.58,0,0,1,1.6.66A1.8,1.8,0,0,1,43.5,9a.8.8,0,0,1-.08.16C43,10.11,42.48,11,42,11.86a32.82,32.82,0,0,0-3,8.07c-.13.55-.07.64.48.77A3.06,3.06,0,0,1,42,23.91a14,14,0,0,1-.37,1.93c-.17.94-.35,1.89-.54,2.83a3.65,3.65,0,0,1-3.12,2.92,4.09,4.09,0,0,1-4.71-3.09,3.51,3.51,0,0,1,0-1.37c.27-1.43.52-2.86.85-4.28a3.06,3.06,0,0,1,3.52-2.51l.12,0h.17c.43.05.49,0,.58-.41.17-.82.39-1.63.63-2.44a36.61,36.61,0,0,1,3.59-8A6.42,6.42,0,0,0,43,8.87a1.21,1.21,0,0,0-.46-1.61A6.4,6.4,0,0,0,40,6.35a22.77,22.77,0,0,0-3.59-.29c-2.52-.09-5,0-7.54.1-2.77.16-5.53.46-8.28.87a77.88,77.88,0,0,0-8,1.55,26.84,26.84,0,0,0-4.7,1.52A7.12,7.12,0,0,0,5.38,12a3.28,3.28,0,0,0-.75,1.65,1.8,1.8,0,0,0,1.29,2.18,1.49,1.49,0,0,0,.36.05,9.67,9.67,0,0,0,3.35-.16c3.32-.64,6.62-1.43,10-2a50.83,50.83,0,0,1,10.3-.87,5.48,5.48,0,0,1,1.92.39,2.43,2.43,0,0,1,1.58,3,1.07,1.07,0,0,1-.07.19,3.94,3.94,0,0,1-3.51,2.78c-3.41.44-6.84.79-10.25,1.26a57.16,57.16,0,0,0-8.7,1.7,6.85,6.85,0,0,0-3,1.69,3.22,3.22,0,0,0-.22,4.54,3.16,3.16,0,0,0,.87.67,5.43,5.43,0,0,0,3.27.75,58.08,58.08,0,0,0,7.52-1.24c2.37-.48,4.72-1,7.11-1.39A12.67,12.67,0,0,1,28.4,27,1.81,1.81,0,0,1,30.2,28.77ZM38.78,23a2,2,0,0,1-.08.41.4.4,0,0,0,.22.52.31.31,0,0,0,.13,0,3.84,3.84,0,0,1,.54.13c.4.07.81.15,1.22.19s.71-.18.61-.65a2,2,0,0,0-.22-.7,2.64,2.64,0,0,0-2-1.68c-.4-.09-.57,0-.63.43a3.57,3.57,0,0,1-.11.55C38.34,22.68,38.39,22.79,38.78,23ZM34,25.91a5.23,5.23,0,0,0-.21,2.42,3.5,3.5,0,0,0,3.46,2.75,3.42,3.42,0,0,0,3-2,8.11,8.11,0,0,0,.69-3.15,5.39,5.39,0,0,0,.22-.68.33.33,0,0,0-.22-.41h0c-.63-.12-1.26-.25-1.9-.35-.39-.06-.46,0-.48.4,0,.18,0,.39-.22.44a1.63,1.63,0,0,1-1.2-.2c-.29-.17-.08-.44-.08-.66v-.2a.18.18,0,0,0-.15-.21h0l-2.14-.43c-.17,0-.31,0-.34.22A17.93,17.93,0,0,0,34,25.91Zm4.18-4.55c0-.24-.08-.32-.25-.32a2.91,2.91,0,0,1-.59,0A2.51,2.51,0,0,0,34.6,22.6c-.12.38,0,.52.36.59l1.67.34c.51.11.54.09.64-.44a.43.43,0,0,1,.5-.48.16.16,0,0,0,.18-.14h0c0-.41.15-.78.21-1.1Zm-.65,3.05c0,.23.07.31.21.34s.23,0,.26-.13c.08-.4.17-.79.23-1.18a.26.26,0,0,0-.23-.27.18.18,0,0,0-.23.13,0,0,0,0,0,0,0c-.1.38-.18.77-.25,1.08Z"/><path class="cls-3" d="M25.76,33.45a2,2,0,0,0,.66.62c1.85,1.17,3.59,2.5,5.43,3.67.19.12.37.23.55.36s.15.21,0,.29c-1.1-.07-2.17-.28-3.25-.42-1.57-.21-3.14-.28-4.71-.34A50.25,50.25,0,0,0,18,37.8,49.59,49.59,0,0,0,.77,42.33a1.62,1.62,0,0,1-.77.24A2.06,2.06,0,0,1,.49,42,18.67,18.67,0,0,1,4.6,39.17a51.2,51.2,0,0,1,12.51-4.59,41,41,0,0,1,7.31-1.11A7.5,7.5,0,0,1,25.76,33.45Z"/><path class="cls-4" d="M48.63,35a2.13,2.13,0,0,1-1.16-.55c-.95-.76-2-1.39-3-2.08-.23-.16-.44-.37-.75-.33a27.05,27.05,0,0,1,.37-3.47,48.15,48.15,0,0,1,2.17-8.78,18.64,18.64,0,0,1,1-2.46.68.68,0,0,1,.46.14l3.36,2.35a.6.6,0,0,0,.42.14C51,22,50.5,24.11,50,26.21s-.73,4.28-1,6.43A20.78,20.78,0,0,1,48.63,35Z"/><path class="cls-5" d="M51.48,20a.6.6,0,0,1-.42-.14L47.7,17.51a.68.68,0,0,0-.46-.14c.42-.93.81-1.88,1.3-2.78a35.35,35.35,0,0,1,5.64-7.83A28.05,28.05,0,0,1,63.51.27c.22-.09.45-.16.68-.24.06,0,.12-.07.16,0s0,.1-.07.13l-.11.07a21.06,21.06,0,0,0-7.76,8,48,48,0,0,0-4.72,11.2C51.63,19.62,51.55,19.81,51.48,20Z"/><path class="cls-2" d="M84.61,21.13c.35-1.29.69-2.58,1-3.86.19-.72.4-1.43.59-2.15a.88.88,0,0,1,.86-.71,6.75,6.75,0,0,1,1.68,0,.86.86,0,0,1,.75.93v8.43a1,1,0,1,1-1.91.1v-1.4c0-1.81,0-3.62-.07-5.44-.17.64-.34,1.29-.5,1.94-.4,1.54-.78,3.09-1.18,4.63a1.39,1.39,0,0,1-.77,1.11A1.26,1.26,0,0,1,83.41,24a1.16,1.16,0,0,1-.08-.32c-.25-.9-.46-1.81-.69-2.71-.33-1.31-.66-2.62-1-4-.16.18-.1.35-.1.5v5.91a2.22,2.22,0,0,1,0,.63,1,1,0,0,1-1.15.68,1,1,0,0,1-.67-.68,4.9,4.9,0,0,1-.07-.77V15.88c0-1.21.28-1.49,1.48-1.49,1.65,0,1.65,0,2.08,1.61l1.38,5.13Z"/><path class="cls-2" d="M96.08,21.09l.54-2c.33-1.25.65-2.5,1-3.74.24-.86.45-1,1.34-1h.92c.79,0,1.12.36,1.13,1.14s0,1.52,0,2.28v5.67a2.15,2.15,0,0,1-.09.76.89.89,0,0,1-.91.59.87.87,0,0,1-.85-.61,1.9,1.9,0,0,1-.09-.71c0-2.15,0-4.3-.08-6.46l-.81,3.15c-.31,1.2-.6,2.41-.93,3.61a1.15,1.15,0,0,1-1.21,1,1.2,1.2,0,0,1-1.22-1c-.45-1.68-.86-3.37-1.29-5.06a11.39,11.39,0,0,0-.5-1.6v6.32a2.51,2.51,0,0,1-.1.77.87.87,0,0,1-.85.61.9.9,0,0,1-.89-.54,1.55,1.55,0,0,1-.1-.71v-8c0-.93.31-1.24,1.25-1.25h.92c.73,0,1,.17,1.15.87.37,1.3.71,2.61,1.06,3.92.17.64.35,1.28.52,1.93Z"/><path class="cls-2" d="M67.84,19.19a5.48,5.48,0,0,1,1.29-3.48,4.86,4.86,0,0,1,4.27-1.47c2.82.23,4.46,2,4.54,5a6.35,6.35,0,0,1-.72,3.37,4.87,4.87,0,0,1-5,2.21,4.65,4.65,0,0,1-4.32-4.7C67.87,19.8,67.86,19.49,67.84,19.19Zm8,.32a5,5,0,0,0-.16-1.39,2.79,2.79,0,0,0-2.3-2.2,2.63,2.63,0,0,0-2.87,1.43,4.83,4.83,0,0,0,0,4.38,2.5,2.5,0,0,0,2.36,1.43,2.6,2.6,0,0,0,2.4-1.37,4.43,4.43,0,0,0,.53-2.28Z"/><path class="cls-2" d="M79.58,32.72V29c0-1.22.33-1.44,1.42-1.44h5.19a1.85,1.85,0,0,1,.57.06.8.8,0,0,1,.47,1,.78.78,0,0,1-.47.47,2.41,2.41,0,0,1-.71.07h-4c-.3,0-.44,0-.42.38a17,17,0,0,1,0,1.75c0,.33.12.39.42.38h4.07a.72.72,0,0,1,.77.65v0a.74.74,0,0,1-.62.84h-4c-.65,0-.65,0-.65.66v1.79c0,.41.13.47.49.46h4.4a.85.85,0,0,1,.9.52.81.81,0,0,1-.4,1.06.84.84,0,0,1-.35.07H80.76c-.79,0-1.11-.3-1.13-1.08V32.7Z"/><path class="cls-2" d="M59.47,19.57a4.67,4.67,0,0,0,.42,2.21,2.58,2.58,0,0,0,3.47,1.1,2.65,2.65,0,0,0,1.14-1.2c.12-.25.2-.51.33-.76a.76.76,0,0,1,.89-.41.84.84,0,0,1,.74.67,1.92,1.92,0,0,1-.16,1.18,4.17,4.17,0,0,1-4.11,2.48c-3.45,0-4.67-2.52-4.84-4.68a5.52,5.52,0,0,1,1.52-4.67c2-1.92,5.69-1.63,7.15.56a2.15,2.15,0,0,1,.44,1.31.85.85,0,0,1-.61.84.83.83,0,0,1-1-.33c-.16-.24-.3-.5-.45-.75A2.4,2.4,0,0,0,62,15.91a2.48,2.48,0,0,0-2.07,1.54A4.7,4.7,0,0,0,59.47,19.57Z"/><path class="cls-2" d="M92.34,34.1l-1.85,2.83a5.58,5.58,0,0,1-.57.78.94.94,0,0,1-1.62-.91,2.91,2.91,0,0,1,.49-1c.67-1,1.32-2,2-2.91a.59.59,0,0,0,0-.77c-.59-.86-1.15-1.75-1.71-2.63a3.82,3.82,0,0,1-.46-.9.8.8,0,0,1,.36-1,1,1,0,0,1,1.2.16c.31.39.58.82.85,1.24.44.69.87,1.39,1.33,2.14l2-3.06a1,1,0,0,1,1-.6.82.82,0,0,1,.86.78.78.78,0,0,1,0,.3,2.82,2.82,0,0,1-.47.95c-.62.93-1.23,1.85-1.86,2.77a.41.41,0,0,0,0,.55c.69,1,1.38,2.11,2.05,3.17a3.72,3.72,0,0,1,.41.76A.93.93,0,0,1,95.93,38a1,1,0,0,1-1.33-.33c-.67-1-1.31-2-2-3.06A2.1,2.1,0,0,0,92.34,34.1Z"/><path class="cls-2" d="M62,32.69V29c0-1.13.33-1.44,1.44-1.44h4.75c.71,0,1,.34,1,1,0,.42-.37.66-1,.67H64.6c-.42,0-.59.08-.55.54a11.36,11.36,0,0,1,0,1.65c0,.33.08.44.42.43h3c.64,0,.94.25.94.77s-.3.78-.94.79h-3c-.29,0-.38.06-.38.37v3a2.78,2.78,0,0,1-.06.58,1,1,0,1,1-2-.07,10.29,10.29,0,0,1,0-1.36Z"/><path class="cls-2" d="M70.63,32.57v-4a1.08,1.08,0,0,1,.65-1.14,1,1,0,0,1,1.32.5.88.88,0,0,1,.09.5v7.26c0,.34.09.44.43.44H76.7a3.23,3.23,0,0,1,.44,0A.84.84,0,0,1,78,37a.81.81,0,0,1-.79.83h0a3.31,3.31,0,0,1-.63,0H72c-1.06,0-1.37-.32-1.37-1.4C70.62,35.12,70.63,33.84,70.63,32.57Z"/><path class="cls-2" d="M34.75,42A2.73,2.73,0,1,1,32,44.71,2.73,2.73,0,0,1,34.75,42ZM33,44.7a1.78,1.78,0,0,0,1.75,1.81h.06a1.81,1.81,0,0,0,0-3.61A1.79,1.79,0,0,0,33,44.67Z"/><path class="cls-2" d="M16.86,42.87a2.73,2.73,0,1,1,2.74,2.72h0a2.71,2.71,0,0,1-2.73-2.69Zm.93,0a1.82,1.82,0,0,0,1.78,1.81,1.84,1.84,0,0,0,1.82-1.81,1.8,1.8,0,0,0-3.6,0Z"/><path class="cls-5" d="M24.05,9.64a15.88,15.88,0,0,1,2.38-.25,44,44,0,0,1,4.87-.07,24.25,24.25,0,0,1,3.7.43.16.16,0,0,1,.18.12A4,4,0,0,1,34,9.8a39.93,39.93,0,0,0-6.47-.07C26.38,9.8,25.2,10,24,10Z"/><path class="cls-6" d="M21,10.4c-2.12.37-4.25.7-6.35,1.13l-3.35.7a.61.61,0,0,1,.44-.3c2.77-.69,5.55-1.35,8.38-1.78L21,10Z"/><path class="cls-6" d="M21,17c-2.16.35-4.33.69-6.47,1.12h-.36l-.07-.25a12.46,12.46,0,0,1,2.34-.56c1.42-.28,2.83-.51,4.26-.68H21Z"/><path class="cls-6" d="M21.23,24.33l-2.92.52-2.19.36v-.35a18.82,18.82,0,0,1,3.05-.65,18,18,0,0,1,2.07-.27Z"/><path class="cls-3" d="M16.11,24.86v.35l-4.13,1a2,2,0,0,1-.77.12,22.63,22.63,0,0,1,3.39-1.17A13,13,0,0,1,16.11,24.86Z"/><path class="cls-4" d="M21.23,24.33v-.39a13.63,13.63,0,0,1,1.92-.25,9.45,9.45,0,0,0,1.43-.07v.31Z"/><path class="cls-4" d="M21,17v-.37a19.82,19.82,0,0,1,3.61-.27v.25Z"/><path class="cls-4" d="M21,10.4V10a10.75,10.75,0,0,1,2.11-.31c.32,0,.65,0,1-.07V10Z"/><path class="cls-5" d="M24.58,23.93v-.31a14.54,14.54,0,0,1,3.61.09Z"/><path class="cls-3" d="M14.07,17.91l.07.25a30.89,30.89,0,0,1-3.31.7A14.69,14.69,0,0,1,14.07,17.91Z"/><path class="cls-5" d="M24.58,16.64v-.25a9.59,9.59,0,0,1,2.51,0,2,2,0,0,1,.8.14Z"/><path class="cls-7" d="M40.92,25.91a8.11,8.11,0,0,1-.69,3.15,3.42,3.42,0,0,1-3,2,3.5,3.5,0,0,1-3.46-2.75,5.28,5.28,0,0,1,.23-2.4Z"/><path class="cls-1" d="M40.92,25.91H34a18.67,18.67,0,0,1,.37-2.09c0-.2.17-.25.34-.22l2.14.43a.18.18,0,0,1,.16.2h0v.2c0,.22-.21.49.08.66a1.63,1.63,0,0,0,1.2.2c.2-.05.21-.26.22-.44,0-.39.09-.46.48-.4.64.1,1.27.23,1.9.35a.33.33,0,0,1,.28.37.43.43,0,0,1,0,.05A4.23,4.23,0,0,1,40.92,25.91Z"/><path class="cls-4" d="M38.16,21.36c-.06.32-.14.69-.23,1.06a.15.15,0,0,1-.17.15h0c-.34,0-.45.19-.5.48-.1.53-.13.55-.64.44l-1.67-.34c-.4-.07-.48-.21-.36-.59A2.51,2.51,0,0,1,37.32,21a2.91,2.91,0,0,0,.59,0C38.08,21,38.18,21.12,38.16,21.36Z"/><path class="cls-4" d="M38.78,23c-.39-.23-.44-.34-.34-.77a3.57,3.57,0,0,1,.11-.55c.06-.4.23-.52.63-.43a2.64,2.64,0,0,1,2,1.68A17.5,17.5,0,0,1,38.78,23Z"/><path class="cls-1" d="M38.78,23a16.29,16.29,0,0,0,2.42,0,2,2,0,0,1,.22.7c.1.47-.13.71-.61.65s-.82-.12-1.22-.19a2.5,2.5,0,0,1-.54-.13.4.4,0,0,1-.38-.42.31.31,0,0,1,0-.13C38.73,23.29,38.75,23.16,38.78,23Z"/><path class="cls-8" d="M37.51,24.41c.07-.31.15-.7.23-1.08a.18.18,0,0,1,.21-.16h0a.23.23,0,0,1,.23.27c-.06.39-.15.78-.23,1.18,0,.13-.14.15-.26.13S37.49,24.64,37.51,24.41Z"/><rect class="cls-9" x="54.96" y="9.99" width="48.44" height="31.36" rx="4.85"/></g></g></svg>